<?xml version="1.0" encoding="UTF-8"?>
<svg viewBox="0 0 372.1394 174.97186" xmlns="http://www.w3.org/2000/svg">
 <defs>
  <linearGradient id="a" x1="153.75" x2="340.2" gradientUnits="userSpaceOnUse">
   <stop offset="0"/>
   <stop stop-color="#ababab" offset=".48946"/>
   <stop offset="1"/>
  </linearGradient>
 </defs>
 <g transform="translate(-94.162 -157.87)">
  <path transform="translate(-42.547)" d="m505.53 260.34c0 39.766-81.831 72.002-182.78 72.002s-182.78-32.237-182.78-72.002 81.831-72.002 182.78-72.002 182.78 32.237 182.78 72.002z" fill="none" opacity=".6" stroke="#000" stroke-linecap="round" stroke-linejoin="round"/>
  <path transform="translate(-42.547 -27.974)" d="m505.53 260.34c0 39.766-81.831 72.002-182.78 72.002s-182.78-32.237-182.78-72.002 81.831-72.002 182.78-72.002 182.78 32.237 182.78 72.002z" fill="none" opacity=".6" stroke="#000" stroke-linecap="round" stroke-linejoin="round"/>
  <path d="m97.447 262.16v-30.119" fill="none" opacity=".6" stroke="#000"/>
  <path d="m462.91 263.25v-30.621" fill="none" opacity=".6" stroke="#000"/>
  <path d="m251.22 331.39c-58.734-3.9546-107.08-18.118-134.29-39.047-4.1838-3.2184-11.679-10.815-13.724-14.279-3.4684-5.8755-5.4731-11.922-5.4731-17.231 0-2.524-0.57685-20.199 0.16182-20.938 0.22501-0.22501 4.6198 9.8089 5.8179 11.631 3.1448 4.7832 12.389 13.215 19.034 17.604 14.983 9.8955 36.61 18.635 60.848 24.552 30.99 7.5651 59.6 10.958 96.702 10.958 31.103 0 55.615-2.5861 81.651-7.7253 47.646-9.4048 80.661-24.992 94.624-45.386l6.1872-13.049 0.32163 11.36c1.3589 3.2628 0.0854 8.5186-0.24113 12.752-1.4623 18.963-22.767 37.489-58.999 50.68-21.232 7.7301-47.342 13.289-76.323 16.482-20.876 2.3005-54.411 3.0808-75.866 1.6362h-0.43395z" fill="url(#a)" opacity=".13"/>
  <path d="m99.711 241.55c-3.8261-12.112-0.13591-23.924 10.922-34.961 21.652-21.612 67.434-37.474 124.86-43.261 21.868-2.2037 49.135-2.7946 70.232-1.5219 49.032 2.9579 89.855 12.405 119.47 27.647 29.069 14.959 41.528 33.368 35.425 52.343-0.41015 1.2751-0.89279 2.4093-1.0726 2.5204s-0.60896-0.34694-0.95381-1.0178c-1.0876-2.116-4.6882-6.6705-7.5798-9.5881-6.2185-6.2743-14.731-12.19-25.454-17.69-29.217-14.985-69.141-24.312-117.8-27.522-13.401-0.88395-42.016-0.87989-55.182 8e-3 -41.352 2.7881-75.575 9.7047-103.3 20.879-22.243 8.9634-38.585 20.288-46.119 31.959-1.1012 1.7059-2.1203 3.1125-2.2647 3.1257s-0.681-1.3006-1.1925-2.9196z" opacity=".07"/>
  <path d="m263 303.37c-0.71533-0.0688-4.8122-0.30877-9.1041-0.5333-27.386-1.4327-56.166-5.9855-80.003-12.656-21.827-6.1081-42.034-15.249-55.003-24.883-6.2382-4.6335-13.221-12.035-16.208-17.181l-1.0247-1.7651 1.0247-1.7651c1.9445-3.3495 4.9322-6.98 8.95-10.876 7.1153-6.8988 14.263-11.685 26.326-17.626 29.15-14.358 68.493-23.293 115.75-26.29 10.209-0.64734 42.667-0.63788 53.138 0.0155 55.218 3.4455 101.75 15.728 129.92 34.292 9.3654 6.1725 17.469 14.066 20.816 20.276l1.0639 1.9738-1.0639 1.9738c-0.58516 1.0856-2.1959 3.3868-3.5795 5.1137-15.558 19.419-50.978 35.201-98.289 43.796-12.118 2.2013-30.285 4.372-45.706 5.4611-7.3814 0.52133-43.245 1.0351-47.007 0.67344z" opacity=".07"/>
  <path d="m97.858 255.22c0.44945-2.6342 1.5579-5.7572 2.6776-8.2239" fill="none" stroke="#c1c1c1"/>
  <path d="m459.87 247.03c1.0666 2.0749 1.9957 5.4497 2.5878 7.6195" fill="none" stroke="#b3b2b2"/>
  <g transform="matrix(.99509 0 0 1.0142 27.884 -201.15)">
   <path transform="matrix(1.0201 0 0 1.0202 -75.677 162.33)" d="m505.53 260.34c0 39.766-81.831 72.002-182.78 72.002s-182.78-32.237-182.78-72.002 81.831-72.002 182.78-72.002 182.78 32.237 182.78 72.002z" fill="none" opacity=".6" stroke="#000" stroke-linecap="round" stroke-linejoin="round" stroke-width=".97573"/>
   <path transform="matrix(1.0201 0 0 1.0202 -75.663 175.72)" d="m505.53 260.34c0 39.766-81.831 72.002-182.78 72.002s-182.78-32.237-182.78-72.002 81.831-72.002 182.78-72.002 182.78 32.237 182.78 72.002z" fill="none" opacity=".6" stroke="#000" stroke-linecap="round" stroke-linejoin="round" stroke-width=".97573"/>
   <path d="m67.107 442.67 0.0784-14.111" fill="none" opacity=".6" stroke="#000" stroke-width=".9954"/>
   <path d="m440 442.52 0.0784-14.111" fill="none" opacity=".6" stroke="#000" stroke-width=".9954"/>
   <path d="m242.65 500.4c-84.214-2.0285-155.49-26.494-171.23-58.775-11.128-22.824 5.8346-45.765 46.674-63.125 54.896-23.334 143.6-29.785 216.8-15.766 41.536 7.9545 74.279 21.927 91.324 38.972 11.782 11.781 15.431 23.552 11.132 35.902-2.1873 6.283-5.0961 10.578-11.424 16.87-22.448 22.319-71.188 38.735-131.42 44.266-8.9236 0.81939-40.027 2.1747-43.99 1.9168-0.96138-0.0625-4.501-0.18004-7.8658-0.26109z" opacity=".05" stroke="#b3b2b2" stroke-linecap="round" stroke-linejoin="round" stroke-width=".9954"/>
   <path d="m244.69 513.91c-3.5364-0.0518-10.667-0.32002-15.845-0.596-78.635-4.1907-142.36-27.722-157.33-58.097-2.5518-5.1783-3.4255-8.5953-3.4008-13.301l0.01941-3.6925 1.1026 2.6545c1.8741 4.512 5.2295 9.0644 10.766 14.607 8.4258 8.4351 18.464 14.945 33.036 21.424 25.041 11.134 56.251 18.787 92.328 22.64 29.622 3.1634 65.92 3.1668 96.27 9e-3 70.699-7.3556 124.32-30.612 136.51-59.21l1.1015-2.584-0.21317 4.8224c-0.233 5.2708-1.4396 9.4583-4.1026 14.238-5.7946 10.4-17.979 20.566-34.548 28.826-38.15 19.018-94.04 29.163-155.69 28.259z" opacity=".05" stroke="#b3b2b2" stroke-linecap="round" stroke-linejoin="round" stroke-width=".9954"/>
  </g>
 </g>
</svg>
